
<global>
amp_veltrack=0
ampeg_release=0.35
</global>

<group>
group_label=PP
xf_cccurve=gain
xfin_hicc1=42
xfout_hicc1=85
xfout_locc1=42

<region>
hikey=f6
hivel=127
lokey=e6
loop_end=308522
loop_mode=loop_continuous
loop_start=76372
loop_xfade=23062
lovel=0
offset=18655
pitch_keycenter=f6
sample=Violins2_trill_half_PP_G6.opus
</region>

<region>
hikey=f5
hivel=127
lokey=e5
loop_end=308522
loop_mode=loop_continuous
loop_start=76372
loop_xfade=23062
lovel=0
offset=24328
pitch_keycenter=f5
sample=Violins2_trill_half_PP_G5.opus
</region>

<region>
hikey=f4
hivel=127
lokey=e4
loop_end=307598
loop_mode=loop_continuous
loop_start=76143
loop_xfade=22993
lovel=0
offset=16286
pitch_keycenter=f4
sample=Violins2_trill_half_PP_G4.opus
</region>

<region>
hikey=d#6
hivel=127
lokey=d6
loop_end=308522
loop_mode=loop_continuous
loop_start=76372
loop_xfade=23062
lovel=0
offset=19641
pitch_keycenter=d#6
sample=Violins2_trill_half_PP_F6.opus
</region>

<region>
hikey=d#5
hivel=127
lokey=d5
loop_end=308522
loop_mode=loop_continuous
loop_start=76372
loop_xfade=23062
lovel=0
offset=27288
pitch_keycenter=d#5
sample=Violins2_trill_half_PP_F5.opus
</region>

<region>
hikey=d#4
hivel=127
lokey=d4
loop_end=297888
loop_mode=loop_continuous
loop_start=73740
loop_xfade=22267
lovel=0
offset=11120
pitch_keycenter=d#4
sample=Violins2_trill_half_PP_F4.opus
</region>

<region>
hikey=c#6
hivel=127
lokey=c6
loop_end=308522
loop_mode=loop_continuous
loop_start=76372
loop_xfade=23062
lovel=0
offset=27286
pitch_keycenter=c#6
sample=Violins2_trill_half_PP_D#6.opus
</region>

<region>
hikey=c#5
hivel=127
lokey=c5
loop_end=308522
loop_mode=loop_continuous
loop_start=76372
loop_xfade=23062
lovel=0
offset=22980
pitch_keycenter=c#5
sample=Violins2_trill_half_PP_D#5.opus
</region>

<region>
hikey=c#4
hivel=127
lokey=c4
loop_end=270022
loop_mode=loop_continuous
loop_start=66842
loop_xfade=20184
lovel=0
offset=22900
pitch_keycenter=c#4
sample=Violins2_trill_half_PP_D#4.opus
</region>

<region>
hikey=D#7
hivel=127
lokey=a#6
loop_end=308522
loop_mode=loop_continuous
loop_start=76372
loop_xfade=23062
lovel=0
offset=4111
pitch_keycenter=a#6
sample=Violins2_trill_half_PP_C7.opus
</region>

<region>
hikey=b5
hivel=127
lokey=a#5
loop_end=308522
loop_mode=loop_continuous
loop_start=76372
loop_xfade=23062
lovel=0
offset=22184
pitch_keycenter=b5
sample=Violins2_trill_half_PP_C#6.opus
</region>

<region>
hikey=b4
hivel=127
lokey=a#4
loop_end=308522
loop_mode=loop_continuous
loop_start=76372
loop_xfade=23062
lovel=0
offset=22491
pitch_keycenter=b4
sample=Violins2_trill_half_PP_C#5.opus
</region>

<region>
hikey=b3
hivel=127
lokey=a#3
loop_end=295309
loop_mode=loop_continuous
loop_start=73101
loop_xfade=22074
lovel=0
offset=3812
pitch_keycenter=b3
sample=Violins2_trill_half_PP_C#4.opus
</region>

<region>
hikey=a6
hivel=127
lokey=g#6
loop_end=308522
loop_mode=loop_continuous
loop_start=76372
loop_xfade=23062
lovel=0
offset=17307
pitch_keycenter=a6
sample=Violins2_trill_half_PP_B6.opus
</region>

<region>
hikey=a5
hivel=127
lokey=g#5
loop_end=307208
loop_mode=loop_continuous
loop_start=76047
loop_xfade=22964
lovel=0
offset=19775
pitch_keycenter=a5
sample=Violins2_trill_half_PP_B5.opus
</region>

<region>
hikey=a4
hivel=127
lokey=g#4
loop_end=288456
loop_mode=loop_continuous
loop_start=71405
loop_xfade=21562
lovel=0
offset=12386
pitch_keycenter=a4
sample=Violins2_trill_half_PP_B4.opus
</region>

<region>
hikey=a3
hivel=127
lokey=g#3
loop_end=281297
loop_mode=loop_continuous
loop_start=69633
loop_xfade=21027
lovel=0
offset=23327
pitch_keycenter=a3
sample=Violins2_trill_half_PP_B3.opus
</region>

<region>
hikey=g6
hivel=127
lokey=f#6
loop_end=308522
loop_mode=loop_continuous
loop_start=76372
loop_xfade=23062
lovel=0
offset=27468
pitch_keycenter=g6
sample=Violins2_trill_half_PP_A6.opus
</region>

<region>
hikey=g5
hivel=127
lokey=f#5
loop_end=308379
loop_mode=loop_continuous
loop_start=76337
loop_xfade=23051
lovel=0
offset=22074
pitch_keycenter=g5
sample=Violins2_trill_half_PP_A5.opus
</region>

<region>
hikey=g4
hivel=127
lokey=f#4
loop_end=307280
loop_mode=loop_continuous
loop_start=76065
loop_xfade=22969
lovel=0
offset=20950
pitch_keycenter=g4
sample=Violins2_trill_half_PP_A4.opus
</region>

<region>
hivel=127
key=g3
loop_end=308522
loop_mode=loop_continuous
loop_start=76372
loop_xfade=23062
lovel=0
offset=21897
sample=Violins2_trill_half_PP_A3.opus
</region>
</group>

<group>
group_label=MF
xf_cccurve=gain
xfin_hicc1=85
xfin_locc1=42
xfout_hicc1=127
xfout_locc1=85

<region>
hikey=f6
hivel=127
lokey=e6
loop_end=305195
loop_mode=loop_continuous
loop_start=75549
loop_xfade=22813
lovel=0
offset=17041
pitch_keycenter=f6
sample=Violins2_trill_half_MF_G6.opus
</region>

<region>
hikey=f5
hivel=127
lokey=e5
loop_end=295402
loop_mode=loop_continuous
loop_start=73124
loop_xfade=22081
lovel=0
offset=7538
pitch_keycenter=f5
sample=Violins2_trill_half_MF_G5.opus
</region>

<region>
hikey=f4
hivel=127
lokey=e4
loop_end=270744
loop_mode=loop_continuous
loop_start=67020
loop_xfade=20238
lovel=0
offset=1781
pitch_keycenter=f4
sample=Violins2_trill_half_MF_G4.opus
</region>

<region>
hikey=d#6
hivel=127
lokey=d6
loop_end=307946
loop_mode=loop_continuous
loop_start=76229
loop_xfade=23019
lovel=0
offset=13229
pitch_keycenter=d#6
sample=Violins2_trill_half_MF_F6.opus
</region>

<region>
hikey=d#5
hivel=127
lokey=d5
loop_end=268862
loop_mode=loop_continuous
loop_start=66555
loop_xfade=20097
lovel=0
offset=4419
pitch_keycenter=d#5
sample=Violins2_trill_half_MF_F5.opus
</region>

<region>
hikey=d#4
hivel=127
lokey=d4
loop_end=271838
loop_mode=loop_continuous
loop_start=67291
loop_xfade=20320
lovel=0
offset=2639
pitch_keycenter=d#4
sample=Violins2_trill_half_MF_F4.opus
</region>

<region>
hikey=c#6
hivel=127
lokey=c6
loop_end=268105
loop_mode=loop_continuous
loop_start=66367
loop_xfade=20041
lovel=0
offset=2119
pitch_keycenter=c#6
sample=Violins2_trill_half_MF_D#6.opus
</region>

<region>
hikey=c#5
hivel=127
lokey=c5
loop_end=259386
loop_mode=loop_continuous
loop_start=64209
loop_xfade=19389
lovel=0
offset=5376
pitch_keycenter=c#5
sample=Violins2_trill_half_MF_D#5.opus
</region>

<region>
hikey=c#4
hivel=127
lokey=c4
loop_end=261195
loop_mode=loop_continuous
loop_start=64657
loop_xfade=19524
lovel=0
offset=4267
pitch_keycenter=c#4
sample=Violins2_trill_half_MF_D#4.opus
</region>

<region>
hikey=D#7
hivel=127
lokey=a#6
loop_end=293881
loop_mode=loop_continuous
loop_start=72748
loop_xfade=21967
lovel=0
offset=6285
pitch_keycenter=a#6
sample=Violins2_trill_half_MF_C7.opus
</region>

<region>
hikey=b5
hivel=127
lokey=a#5
loop_end=259364
loop_mode=loop_continuous
loop_start=64203
loop_xfade=19387
lovel=0
offset=7182
pitch_keycenter=b5
sample=Violins2_trill_half_MF_C#6.opus
</region>

<region>
hikey=b4
hivel=127
lokey=a#4
loop_end=262614
loop_mode=loop_continuous
loop_start=65008
loop_xfade=19630
lovel=0
offset=2046
pitch_keycenter=b4
sample=Violins2_trill_half_MF_C#5.opus
</region>

<region>
hikey=b3
hivel=127
lokey=a#3
loop_end=262402
loop_mode=loop_continuous
loop_start=64955
loop_xfade=19614
lovel=0
offset=2426
pitch_keycenter=b3
sample=Violins2_trill_half_MF_C#4.opus
</region>

<region>
hikey=a6
hivel=127
lokey=g#6
loop_end=284398
loop_mode=loop_continuous
loop_start=70400
loop_xfade=21259
lovel=0
offset=14252
pitch_keycenter=a6
sample=Violins2_trill_half_MF_B6.opus
</region>

<region>
hikey=a5
hivel=127
lokey=g#5
loop_end=264448
loop_mode=loop_continuous
loop_start=65462
loop_xfade=19767
lovel=0
offset=6560
pitch_keycenter=a5
sample=Violins2_trill_half_MF_B5.opus
</region>

<region>
hikey=a4
hivel=127
lokey=g#4
loop_end=266572
loop_mode=loop_continuous
loop_start=65988
loop_xfade=19926
lovel=0
offset=5350
pitch_keycenter=a4
sample=Violins2_trill_half_MF_B4.opus
</region>

<region>
hikey=a3
hivel=127
lokey=g#3
loop_end=260972
loop_mode=loop_continuous
loop_start=64601
loop_xfade=19508
lovel=0
offset=4746
pitch_keycenter=a3
sample=Violins2_trill_half_MF_B3.opus
</region>

<region>
hikey=g6
hivel=127
lokey=f#6
loop_end=304685
loop_mode=loop_continuous
loop_start=75422
loop_xfade=22775
lovel=0
offset=19722
pitch_keycenter=g6
sample=Violins2_trill_half_MF_A6.opus
</region>

<region>
hikey=g5
hivel=127
lokey=f#5
loop_end=287010
loop_mode=loop_continuous
loop_start=71047
loop_xfade=21454
lovel=0
offset=2926
pitch_keycenter=g5
sample=Violins2_trill_half_MF_A5.opus
</region>

<region>
hikey=g4
hivel=127
lokey=f#4
loop_end=269998
loop_mode=loop_continuous
loop_start=66836
loop_xfade=20182
lovel=0
offset=998
pitch_keycenter=g4
sample=Violins2_trill_half_MF_A4.opus
</region>

<region>
hivel=127
key=g3
loop_end=261263
loop_mode=loop_continuous
loop_start=64673
loop_xfade=19529
lovel=0
offset=3147
sample=Violins2_trill_half_MF_A3.opus
</region>
</group>

<group>
group_label=FF
xf_cccurve=gain
xfin_hicc1=127
xfin_locc1=85
xfout_hicc1=127
xfout_locc1=127

<region>
hikey=f6
hivel=127
lokey=e6
loop_end=265459
loop_mode=loop_continuous
loop_start=65712
loop_xfade=19843
lovel=0
offset=3708
pitch_keycenter=f6
sample=Violins2_trill_half_FF_G6.opus
</region>

<region>
hikey=f5
hivel=127
lokey=e5
loop_end=263214
loop_mode=loop_continuous
loop_start=65156
loop_xfade=19675
lovel=0
offset=2748
pitch_keycenter=f5
sample=Violins2_trill_half_FF_G5.opus
</region>

<region>
hikey=f4
hivel=127
lokey=e4
loop_end=263063
loop_mode=loop_continuous
loop_start=65119
loop_xfade=19664
lovel=0
offset=2488
pitch_keycenter=f4
sample=Violins2_trill_half_FF_G4.opus
</region>

<region>
hikey=d#6
hivel=127
lokey=d6
loop_end=268342
loop_mode=loop_continuous
loop_start=66426
loop_xfade=20058
lovel=0
offset=4105
pitch_keycenter=d#6
sample=Violins2_trill_half_FF_F6.opus
</region>

<region>
hikey=d#5
hivel=127
lokey=d5
loop_end=260487
loop_mode=loop_continuous
loop_start=64481
loop_xfade=19471
lovel=0
offset=2102
pitch_keycenter=d#5
sample=Violins2_trill_half_FF_F5.opus
</region>

<region>
hikey=d#4
hivel=127
lokey=d4
loop_end=264961
loop_mode=loop_continuous
loop_start=65589
loop_xfade=19806
lovel=0
offset=7564
pitch_keycenter=d#4
sample=Violins2_trill_half_FF_F4.opus
</region>

<region>
hikey=c#6
hivel=127
lokey=c6
loop_end=266538
loop_mode=loop_continuous
loop_start=65979
loop_xfade=19924
lovel=0
offset=4812
pitch_keycenter=c#6
sample=Violins2_trill_half_FF_D#6.opus
</region>

<region>
hikey=c#5
hivel=127
lokey=c5
loop_end=267137
loop_mode=loop_continuous
loop_start=66127
loop_xfade=19968
lovel=0
offset=2616
pitch_keycenter=c#5
sample=Violins2_trill_half_FF_D#5.opus
</region>

<region>
hikey=c#4
hivel=127
lokey=c4
loop_end=263550
loop_mode=loop_continuous
loop_start=65240
loop_xfade=19700
lovel=0
offset=1406
pitch_keycenter=c#4
sample=Violins2_trill_half_FF_D#4.opus
</region>

<region>
hikey=D#7
hivel=127
lokey=a#6
loop_end=263411
loop_mode=loop_continuous
loop_start=65205
loop_xfade=19690
lovel=0
offset=1550
pitch_keycenter=a#6
sample=Violins2_trill_half_FF_C7.opus
</region>

<region>
hikey=b5
hivel=127
lokey=a#5
loop_end=257472
loop_mode=loop_continuous
loop_start=63735
loop_xfade=19246
lovel=0
offset=5016
pitch_keycenter=b5
sample=Violins2_trill_half_FF_C#6.opus
</region>

<region>
hikey=b4
hivel=127
lokey=a#4
loop_end=261491
loop_mode=loop_continuous
loop_start=64730
loop_xfade=19546
lovel=0
offset=1275
pitch_keycenter=b4
sample=Violins2_trill_half_FF_C#5.opus
</region>

<region>
hikey=b3
hivel=127
lokey=a#3
loop_end=266561
loop_mode=loop_continuous
loop_start=65985
loop_xfade=19925
lovel=0
offset=1931
pitch_keycenter=b3
sample=Violins2_trill_half_FF_C#4.opus
</region>

<region>
hikey=a6
hivel=127
lokey=g#6
loop_end=256538
loop_mode=loop_continuous
loop_start=63504
loop_xfade=19176
lovel=0
offset=1439
pitch_keycenter=a6
sample=Violins2_trill_half_FF_B6.opus
</region>

<region>
hikey=a5
hivel=127
lokey=g#5
loop_end=266907
loop_mode=loop_continuous
loop_start=66070
loop_xfade=19951
lovel=0
offset=4208
pitch_keycenter=a5
sample=Violins2_trill_half_FF_B5.opus
</region>

<region>
hikey=a4
hivel=127
lokey=g#4
loop_end=264328
loop_mode=loop_continuous
loop_start=65432
loop_xfade=19758
lovel=0
offset=2027
pitch_keycenter=a4
sample=Violins2_trill_half_FF_B4.opus
</region>

<region>
hikey=a3
hivel=127
lokey=g#3
loop_end=265606
loop_mode=loop_continuous
loop_start=65749
loop_xfade=19854
lovel=0
offset=1533
pitch_keycenter=a3
sample=Violins2_trill_half_FF_B3.opus
</region>

<region>
hikey=g6
hivel=127
lokey=f#6
loop_end=263704
loop_mode=loop_continuous
loop_start=65278
loop_xfade=19712
lovel=0
offset=5439
pitch_keycenter=g6
sample=Violins2_trill_half_FF_A6.opus
</region>

<region>
hikey=g5
hivel=127
lokey=f#5
loop_end=260640
loop_mode=loop_continuous
loop_start=64519
loop_xfade=19483
lovel=0
offset=1787
pitch_keycenter=g5
sample=Violins2_trill_half_FF_A5.opus
</region>

<region>
hikey=g4
hivel=127
lokey=f#4
loop_end=266725
loop_mode=loop_continuous
loop_start=66026
loop_xfade=19938
lovel=0
offset=2005
pitch_keycenter=g4
sample=Violins2_trill_half_FF_A4.opus
</region>

<region>
hivel=127
key=g3
loop_end=267383
loop_mode=loop_continuous
loop_start=66188
loop_xfade=19987
lovel=0
offset=3725
sample=Violins2_trill_half_FF_A3.opus
</region>
</group>

<group>
amp_veltrack=80.0
ampeg_release=1.50
group_label=Accent_copy
volume=6.0

<region>
end=45600
hivel=42
key=G6
lovel=0
offset=6309
sample=Violins2_staccato_PP_G6_RR1.opus
</region>

<region>
end=45600
hivel=42
key=G5
lovel=0
offset=7406
sample=Violins2_staccato_PP_G5_RR1.opus
</region>

<region>
end=45600
hivel=42
key=G4
lovel=0
offset=6487
sample=Violins2_staccato_PP_G4_RR1.opus
</region>

<region>
end=45600
hivel=42
key=G3
lovel=0
offset=3298
sample=Violins2_staccato_PP_G3_RR1.opus
</region>

<region>
end=45600
hivel=42
key=G#6
lovel=0
offset=3160
sample=Violins2_staccato_PP_G#6_RR1.opus
</region>

<region>
end=45600
hivel=42
key=G#5
lovel=0
offset=6562
sample=Violins2_staccato_PP_G#5_RR1.opus
</region>

<region>
end=45600
hivel=42
key=G#4
lovel=0
offset=1600
sample=Violins2_staccato_PP_G#4_RR1.opus
</region>

<region>
end=45600
hivel=42
key=G#3
lovel=0
offset=2153
sample=Violins2_staccato_PP_G#3_RR1.opus
</region>

<region>
end=45600
hivel=42
key=F6
lovel=0
offset=3534
sample=Violins2_staccato_PP_F6_RR1.opus
</region>

<region>
end=45600
hivel=42
key=F5
lovel=0
offset=6199
sample=Violins2_staccato_PP_F5_RR1.opus
</region>

<region>
end=45600
hivel=42
key=F4
lovel=0
offset=5898
sample=Violins2_staccato_PP_F4_RR1.opus
</region>

<region>
end=45600
hivel=42
key=F#6
lovel=0
offset=6250
sample=Violins2_staccato_PP_F#6_RR1.opus
</region>

<region>
end=45600
hivel=42
key=F#5
lovel=0
offset=5284
sample=Violins2_staccato_PP_F#5_RR1.opus
</region>

<region>
end=45600
hivel=42
key=F#4
lovel=0
offset=7153
sample=Violins2_staccato_PP_F#4_RR1.opus
</region>

<region>
end=45600
hivel=42
key=E6
lovel=0
offset=6064
sample=Violins2_staccato_PP_E6_RR1.opus
</region>

<region>
end=45600
hivel=42
key=E5
lovel=0
offset=8425
sample=Violins2_staccato_PP_E5_RR1.opus
</region>

<region>
end=45600
hivel=42
key=E4
lovel=0
offset=2275
sample=Violins2_staccato_PP_E4_RR1.opus
</region>

<region>
end=45600
hivel=42
key=D6
lovel=0
offset=8449
sample=Violins2_staccato_PP_D6_RR1.opus
</region>

<region>
end=45600
hivel=42
key=D5
lovel=0
offset=3851
sample=Violins2_staccato_PP_D5_RR1.opus
</region>

<region>
end=45600
hivel=42
key=D4
lovel=0
offset=1677
sample=Violins2_staccato_PP_D4_RR1.opus
</region>

<region>
end=45600
hivel=42
key=D#6
lovel=0
offset=4250
sample=Violins2_staccato_PP_D#6_RR1.opus
</region>

<region>
end=45600
hivel=42
key=D#5
lovel=0
offset=3026
sample=Violins2_staccato_PP_D#5_RR1.opus
</region>

<region>
end=45600
hivel=42
key=D#4
lovel=0
offset=2171
sample=Violins2_staccato_PP_D#4_RR1.opus
</region>

<region>
end=45600
hikey=D#7
hivel=42
lokey=C7
lovel=0
offset=4888
pitch_keycenter=C7
sample=Violins2_staccato_PP_C7_RR1.opus
</region>

<region>
end=45600
hivel=42
key=C6
lovel=0
offset=3497
sample=Violins2_staccato_PP_C6_RR1.opus
</region>

<region>
end=45600
hivel=42
key=C5
lovel=0
offset=4030
sample=Violins2_staccato_PP_C5_RR1.opus
</region>

<region>
end=45600
hivel=42
key=C4
lovel=0
offset=2810
sample=Violins2_staccato_PP_C4_RR1.opus
</region>

<region>
end=45600
hivel=42
key=C#6
lovel=0
offset=8406
sample=Violins2_staccato_PP_C#6_RR1.opus
</region>

<region>
end=45600
hivel=42
key=C#5
lovel=0
offset=856
sample=Violins2_staccato_PP_C#5_RR1.opus
</region>

<region>
end=45600
hivel=42
key=C#4
lovel=0
offset=2641
sample=Violins2_staccato_PP_C#4_RR1.opus
</region>

<region>
end=45600
hivel=42
key=B6
lovel=0
offset=4706
sample=Violins2_staccato_PP_B6_RR1.opus
</region>

<region>
end=45600
hivel=42
key=B5
lovel=0
offset=9235
sample=Violins2_staccato_PP_B5_RR1.opus
</region>

<region>
end=45600
hivel=42
key=B4
lovel=0
offset=6908
sample=Violins2_staccato_PP_B4_RR1.opus
</region>

<region>
end=45600
hivel=42
key=B3
lovel=0
offset=4365
sample=Violins2_staccato_PP_B3_RR1.opus
</region>

<region>
end=45600
hivel=42
key=A6
lovel=0
offset=6013
sample=Violins2_staccato_PP_A6_RR1.opus
</region>

<region>
end=45600
hivel=42
key=A5
lovel=0
offset=3635
sample=Violins2_staccato_PP_A5_RR1.opus
</region>

<region>
end=45600
hivel=42
key=A4
lovel=0
offset=1828
sample=Violins2_staccato_PP_A4_RR1.opus
</region>

<region>
end=45600
hivel=42
key=A3
lovel=0
offset=5708
sample=Violins2_staccato_PP_A3_RR1.opus
</region>

<region>
end=45600
hivel=42
key=A#6
lovel=0
offset=4472
sample=Violins2_staccato_PP_A#6_RR1.opus
</region>

<region>
end=45600
hivel=42
key=A#5
lovel=0
offset=2204
sample=Violins2_staccato_PP_A#5_RR1.opus
</region>

<region>
end=45600
hivel=42
key=A#4
lovel=0
offset=2998
sample=Violins2_staccato_PP_A#4_RR1.opus
</region>

<region>
end=45600
hivel=42
key=A#3
lovel=0
offset=4671
sample=Violins2_staccato_PP_A#3_RR1.opus
</region>

<region>
end=45600
hivel=84
key=G6
lovel=43
offset=1430
sample=Violins2_staccato_MF_G6_RR1.opus
</region>

<region>
end=45600
hivel=84
key=G5
lovel=43
offset=2333
sample=Violins2_staccato_MF_G5_RR1.opus
</region>

<region>
end=45600
hivel=84
key=G4
lovel=43
offset=1991
sample=Violins2_staccato_MF_G4_RR1.opus
</region>

<region>
end=45600
hivel=84
key=G3
lovel=43
offset=1954
sample=Violins2_staccato_MF_G3_RR1.opus
</region>

<region>
end=45600
hivel=84
key=G#6
lovel=43
offset=2728
sample=Violins2_staccato_MF_G#6_RR1.opus
</region>

<region>
end=45600
hivel=84
key=G#5
lovel=43
offset=3449
sample=Violins2_staccato_MF_G#5_RR1.opus
</region>

<region>
end=45600
hivel=84
key=G#4
lovel=43
offset=4526
sample=Violins2_staccato_MF_G#4_RR1.opus
</region>

<region>
end=45600
hivel=84
key=G#3
lovel=43
offset=2284
sample=Violins2_staccato_MF_G#3_RR1.opus
</region>

<region>
end=45600
hivel=84
key=F6
lovel=43
offset=1778
sample=Violins2_staccato_MF_F6_RR1.opus
</region>

<region>
end=45600
hivel=84
key=F5
lovel=43
offset=1530
sample=Violins2_staccato_MF_F5_RR1.opus
</region>

<region>
end=45600
hivel=84
key=F4
lovel=43
offset=456
sample=Violins2_staccato_MF_F4_RR1.opus
</region>

<region>
end=45600
hivel=84
key=F#6
lovel=43
offset=2038
sample=Violins2_staccato_MF_F#6_RR1.opus
</region>

<region>
end=45600
hivel=84
key=F#5
lovel=43
offset=1778
sample=Violins2_staccato_MF_F#5_RR1.opus
</region>

<region>
end=45600
hivel=84
key=F#4
lovel=43
offset=2526
sample=Violins2_staccato_MF_F#4_RR1.opus
</region>

<region>
end=45600
hivel=84
key=E6
lovel=43
offset=2998
sample=Violins2_staccato_MF_E6_RR1.opus
</region>

<region>
end=45600
hivel=84
key=E5
lovel=43
offset=883
sample=Violins2_staccato_MF_E5_RR1.opus
</region>

<region>
end=45600
hivel=84
key=E4
lovel=43
offset=1678
sample=Violins2_staccato_MF_E4_RR1.opus
</region>

<region>
end=45600
hivel=84
key=D6
lovel=43
offset=1651
sample=Violins2_staccato_MF_D6_RR1.opus
</region>

<region>
end=45600
hivel=84
key=D5
lovel=43
offset=2553
sample=Violins2_staccato_MF_D5_RR1.opus
</region>

<region>
end=45600
hivel=84
key=D4
lovel=43
offset=1179
sample=Violins2_staccato_MF_D4_RR1.opus
</region>

<region>
end=45600
hivel=84
key=D#6
lovel=43
offset=2094
sample=Violins2_staccato_MF_D#6_RR1.opus
</region>

<region>
end=45600
hivel=84
key=D#5
lovel=43
offset=2257
sample=Violins2_staccato_MF_D#5_RR1.opus
</region>

<region>
end=45600
hivel=84
key=d#4
lovel=43
offset=1397
sample=Violins2_staccato_MF_D#4_RR1.opus
</region>

<region>
end=45600
hikey=D#7
hivel=84
lokey=C7
lovel=43
offset=1420
pitch_keycenter=C7
sample=Violins2_staccato_MF_C7_RR1.opus
</region>

<region>
end=45600
hivel=84
key=C6
lovel=43
offset=3097
sample=Violins2_staccato_MF_C6_RR1.opus
</region>

<region>
end=45600
hivel=84
key=C5
lovel=43
offset=941
sample=Violins2_staccato_MF_C5_RR1.opus
</region>

<region>
end=45600
hivel=84
key=C4
lovel=43
offset=1281
sample=Violins2_staccato_MF_C4_RR1.opus
</region>

<region>
end=45600
hivel=84
key=C#6
lovel=43
offset=2236
sample=Violins2_staccato_MF_C#6_RR1.opus
</region>

<region>
end=45600
hivel=84
key=C#5
lovel=43
offset=832
sample=Violins2_staccato_MF_C#5_RR1.opus
</region>

<region>
end=45600
hivel=84
key=C#4
lovel=43
offset=1443
sample=Violins2_staccato_MF_C#4_RR1.opus
</region>

<region>
end=45600
hivel=84
key=B6
lovel=43
offset=690
sample=Violins2_staccato_MF_B6_RR1.opus
</region>

<region>
end=45600
hivel=84
key=B5
lovel=43
offset=3127
sample=Violins2_staccato_MF_B5_RR1.opus
</region>

<region>
end=45600
hivel=84
key=B4
lovel=43
offset=4529
sample=Violins2_staccato_MF_B4_RR1.opus
</region>

<region>
end=45600
hivel=84
key=B3
lovel=43
offset=1311
sample=Violins2_staccato_MF_B3_RR1.opus
</region>

<region>
end=45600
hivel=84
key=A6
lovel=43
offset=2445
sample=Violins2_staccato_MF_A6_RR1.opus
</region>

<region>
end=45600
hivel=84
key=A5
lovel=43
offset=1016
sample=Violins2_staccato_MF_A5_RR1.opus
</region>

<region>
end=45600
hivel=84
key=A4
lovel=43
offset=2100
sample=Violins2_staccato_MF_A4_RR1.opus
</region>

<region>
end=45600
hivel=84
key=A3
lovel=43
offset=1056
sample=Violins2_staccato_MF_A3_RR1.opus
</region>

<region>
end=45600
hivel=84
key=A#6
lovel=43
offset=2560
sample=Violins2_staccato_MF_A#6_RR1.opus
</region>

<region>
end=45600
hivel=84
key=A#5
lovel=43
offset=1278
sample=Violins2_staccato_MF_A#5_RR1.opus
</region>

<region>
end=45600
hivel=84
key=A#4
lovel=43
offset=1270
sample=Violins2_staccato_MF_A#4_RR1.opus
</region>

<region>
end=45600
hivel=84
key=A#3
lovel=43
offset=2088
sample=Violins2_staccato_MF_A#3_RR1.opus
</region>

<region>
end=45600
hivel=127
key=G6
lovel=85
offset=1454
sample=Violins2_staccato_FF_G6_RR1.opus
tune=0.00
</region>

<region>
end=45600
hivel=127
key=G5
lovel=85
offset=391
sample=Violins2_staccato_FF_G5_RR1.opus
tune=0.00
</region>

<region>
end=45600
hivel=127
key=G4
lovel=85
offset=1946
sample=Violins2_staccato_FF_G4_RR1.opus
tune=0.00
</region>

<region>
end=45600
hivel=127
key=G3
lovel=85
sample=Violins2_staccato_FF_G3_RR1.opus
tune=0.00
</region>

<region>
end=45600
hivel=127
key=G#6
lovel=85
offset=854
sample=Violins2_staccato_FF_G#6_RR1.opus
tune=0.00
</region>

<region>
end=45600
hivel=127
key=G#5
lovel=85
offset=1882
sample=Violins2_staccato_FF_G#5_RR1.opus
tune=0.00
</region>

<region>
end=45600
hivel=127
key=G#4
lovel=85
offset=3128
sample=Violins2_staccato_FF_G#4_RR1.opus
tune=0.00
</region>

<region>
end=45600
hivel=127
key=G#3
lovel=85
offset=2111
sample=Violins2_staccato_FF_G#3_RR1.opus
tune=0.00
</region>

<region>
end=45600
hivel=127
key=F6
lovel=85
offset=2871
sample=Violins2_staccato_FF_F6_RR1.opus
tune=0.00
</region>

<region>
end=45600
hivel=127
key=F5
lovel=85
offset=1860
sample=Violins2_staccato_FF_F5_RR1.opus
tune=0.00
</region>

<region>
end=45600
hivel=127
key=F4
lovel=85
offset=2704
sample=Violins2_staccato_FF_F4_RR1.opus
tune=0.00
</region>

<region>
end=45600
hivel=127
key=F#6
lovel=85
offset=126
sample=Violins2_staccato_FF_F#6_RR1.opus
tune=0.00
</region>

<region>
end=45600
hivel=127
key=F#5
lovel=85
offset=1645
sample=Violins2_staccato_FF_F#5_RR1.opus
tune=0.00
</region>

<region>
end=45600
hivel=127
key=F#4
lovel=85
offset=1304
sample=Violins2_staccato_FF_F#4_RR1.opus
tune=0.00
</region>

<region>
end=45600
hivel=127
key=e6
lovel=85
offset=1516
sample=Violins2_staccato_FF_E6_RR1.opus
tune=0.00
</region>

<region>
end=45600
hivel=127
key=E5
lovel=85
offset=1313
sample=Violins2_staccato_FF_E5_RR1.opus
tune=0.00
</region>

<region>
end=45600
hivel=127
key=e4
lovel=85
offset=853
sample=Violins2_staccato_FF_E4_RR1.opus
tune=0.00
</region>

<region>
end=45600
hivel=127
key=D6
lovel=85
offset=594
sample=Violins2_staccato_FF_D6_RR1.opus
tune=0.00
</region>

<region>
end=45600
hivel=127
key=D5
lovel=85
offset=2732
sample=Violins2_staccato_FF_D5_RR1.opus
tune=0.00
</region>

<region>
end=45600
hivel=127
key=D4
lovel=85
offset=1389
sample=Violins2_staccato_FF_D4_RR1.opus
tune=0.00
</region>

<region>
end=45600
hivel=127
key=D#6
lovel=85
offset=1487
sample=Violins2_staccato_FF_D#6_RR1.opus
tune=0.00
</region>

<region>
end=45600
hivel=127
key=D#5
lovel=85
offset=1446
sample=Violins2_staccato_FF_D#5_RR1.opus
tune=0.00
</region>

<region>
end=45600
hivel=127
key=D#4
lovel=85
offset=1075
sample=Violins2_staccato_FF_D#4_RR1.opus
tune=0.00
</region>

<region>
end=45600
hikey=D#7
hivel=127
lokey=C7
lovel=85
offset=1248
pitch_keycenter=C7
sample=Violins2_staccato_FF_C7_RR1.opus
tune=0.00
</region>

<region>
end=45600
hivel=127
key=C6
lovel=85
offset=2102
sample=Violins2_staccato_FF_C6_RR1.opus
tune=0.00
</region>

<region>
end=45600
hivel=127
key=C5
lovel=85
offset=1051
sample=Violins2_staccato_FF_C5_RR1.opus
tune=0.00
</region>

<region>
end=45600
hivel=127
key=C4
lovel=85
offset=3068
sample=Violins2_staccato_FF_C4_RR1.opus
tune=0.00
</region>

<region>
end=45600
hivel=127
key=C#6
lovel=85
offset=2444
sample=Violins2_staccato_FF_C#6_RR1.opus
tune=0.00
</region>

<region>
end=45600
hivel=127
key=C#5
lovel=85
offset=3061
sample=Violins2_staccato_FF_C#5_RR1.opus
tune=0.00
</region>

<region>
end=45600
hivel=127
key=C#4
lovel=85
offset=1344
sample=Violins2_staccato_FF_C#4_RR1.opus
tune=0.00
</region>

<region>
end=45600
hivel=127
key=B6
lovel=85
offset=1295
sample=Violins2_staccato_FF_B6_RR1.opus
tune=0.00
</region>

<region>
end=45600
hivel=127
key=B5
lovel=85
offset=958
sample=Violins2_staccato_FF_B5_RR1.opus
tune=0.00
</region>

<region>
end=45600
hivel=127
key=B4
lovel=85
offset=1582
sample=Violins2_staccato_FF_B4_RR1.opus
tune=0.00
</region>

<region>
end=45600
hivel=127
key=B3
lovel=85
offset=1681
sample=Violins2_staccato_FF_B3_RR1.opus
tune=0.00
</region>

<region>
end=45600
hivel=127
key=A6
lovel=85
offset=83
sample=Violins2_staccato_FF_A6_RR1.opus
tune=0.00
</region>

<region>
end=45600
hivel=127
key=A5
lovel=85
offset=3290
sample=Violins2_staccato_FF_A5_RR1.opus
tune=0.00
</region>

<region>
end=45600
hivel=127
key=A4
lovel=85
offset=1189
sample=Violins2_staccato_FF_A4_RR1.opus
tune=0.00
</region>

<region>
end=45600
hivel=127
key=A3
lovel=85
offset=545
sample=Violins2_staccato_FF_A3_RR1.opus
tune=0.00
</region>

<region>
end=45600
hivel=127
key=A#6
lovel=85
offset=588
sample=Violins2_staccato_FF_A#6_RR1.opus
tune=0.00
</region>

<region>
end=45600
hivel=127
key=A#5
lovel=85
offset=1125
sample=Violins2_staccato_FF_A#5_RR1.opus
tune=0.00
</region>

<region>
end=45600
hivel=127
key=A#4
lovel=85
offset=1697
sample=Violins2_staccato_FF_A#4_RR1.opus
tune=0.00
</region>

<region>
end=45600
hivel=127
key=A#3
lovel=85
offset=3003
sample=Violins2_staccato_FF_A#3_RR1.opus
tune=0.00
</region>
</group>